<?xml version="1.0" encoding="UTF-8"?>
<svg id="Layer_2" data-name="Layer 2" xmlns="http://www.w3.org/2000/svg" viewBox="0 0 211.25 211.25">
  <defs>
    <style>
      .cls-1 {
        fill: #f5f5f7;
      }
    </style>
  </defs>
  <g id="Shapes">
    <g id="_20" data-name="20">
      <path class="cls-1" d="M4.28,105.62c-1.43,0-2.86.04-4.28.1.05,58.29,47.32,105.53,105.62,105.53.95,0,1.89-.05,2.83-.07,0-.45.02-.9.02-1.36,0-57.45-46.74-104.2-104.2-104.2Z"/>
      <path class="cls-1" d="M105.62,0c-13.63,0-26.64,2.61-38.6,7.31,71.77,3.39,130.36,57.97,139.97,127.97,2.75-9.41,4.25-19.35,4.25-29.65C211.25,47.29,163.96,0,105.62,0Z"/>
      <path class="cls-1" d="M37.11,45.68c-6.58,0-13.05.47-19.38,1.37-3.34,5-6.25,10.31-8.71,15.87,1.74-.07,3.49-.11,5.25-.11,75.98,0,137.85,61.52,138.44,137.37,6.41-3.2,12.44-7.03,18.02-11.41.35-3.88.55-7.8.55-11.77,0-72.41-60.19-131.32-134.17-131.32Z"/>
      <path class="cls-1" d="M14.27,74.22c-3.24,0-6.45.15-9.64.39-1.94,6.33-3.3,12.91-4.02,19.68,1.22-.04,2.44-.09,3.67-.09,63.75,0,115.62,51.86,115.62,115.62,0,.15-.01.29-.01.44,7.38-1,14.52-2.74,21.34-5.18.04-1.27.09-2.54.09-3.83,0-70.05-56.99-127.03-127.03-127.03Z"/>
      <path class="cls-1" d="M59.95,18.56c-5.19,0-10.31.32-15.35.88-6.24,4.43-12,9.49-17.14,15.14,3.19-.21,6.4-.32,9.65-.32,80.28,0,145.59,64.03,145.59,142.74,0,.28-.01.55-.01.83,5.42-5.79,10.2-12.18,14.22-19.08.02-1.05.07-2.1.07-3.16,0-75.56-61.47-137.03-137.03-137.03Z"/>
    </g>
  </g>
</svg>