<?xml version="1.0" encoding="UTF-8"?>
<svg id="Layer_2" data-name="Layer 2" xmlns="http://www.w3.org/2000/svg" viewBox="0 0 261.83 285.03">
  <defs>
    <style>
      .cls-1 {
        fill: #f5f5f7;
      }
    </style>
  </defs>
  <g id="Shapes">
    <g id="_31" data-name="31">
      <circle class="cls-1" cx="130.91" cy="142.52" r="16.18" transform="translate(-21.14 22.81) rotate(-9.22)"/>
      <path class="cls-1" d="M233.07,142.52c1.94-1.9,3.82-3.81,5.6-5.72,20.26-21.79,27.57-41.77,20.58-56.24-9.01-18.65-39.79-23.6-79.61-15.69C169.45,25.57,151.62,0,130.91,0s-38.56,25.59-48.75,64.91c-7.89-1.56-15.51-2.65-22.76-3.21-29.68-2.31-49.85,4.39-56.84,18.86-7.85,16.26,2.75,39,26.09,61.96C5.31,165.47-5.29,188.21,2.56,204.47c6.08,12.6,22.17,19.31,45.81,19.31,3.51,0,7.19-.15,11.02-.45,7.24-.56,14.87-1.65,22.76-3.21,10.19,39.31,28.03,64.9,48.75,64.9s38.56-25.59,48.75-64.9c7.89,1.56,15.51,2.65,22.76,3.21,3.84.3,7.51.45,11.02.45,23.64,0,39.73-6.71,45.82-19.31,6.99-14.48-.32-34.45-20.58-56.24-1.78-1.91-3.66-3.82-5.6-5.72ZM213.83,68.5c19.7,0,33.95,4.95,38.9,15.2,5.52,11.43-1.54,28.99-19.36,48.16-1.76,1.89-3.63,3.78-5.56,5.67-11.53-10.51-25.36-20.75-40.79-30.21-1.25-12.54-3.16-24.36-5.63-35.27,11.81-2.33,22.79-3.55,32.44-3.55ZM152.9,188.07c-7.33,3.54-14.68,6.77-21.99,9.7-7.31-2.93-14.66-6.16-21.99-9.7-9.53-4.6-18.62-9.54-27.19-14.68-.91-9.96-1.4-20.29-1.4-30.87s.5-20.91,1.4-30.87c8.57-5.15,17.66-10.08,27.19-14.68,7.36-3.56,14.73-6.78,22.01-9.69,7.3,2.93,14.64,6.15,21.97,9.69,9.47,4.57,18.57,9.49,27.18,14.63.91,9.97,1.41,20.32,1.41,30.92s-.5,20.95-1.41,30.92c-8.62,5.15-17.71,10.06-27.18,14.63ZM179.15,182.37c-1.23,10.27-2.92,20.05-5,29.17-10.77-2.48-22-5.84-33.43-10,5.1-2.18,10.22-4.48,15.32-6.95,7.98-3.85,15.7-7.94,23.11-12.22ZM121.09,201.54c-11.43,4.17-22.66,7.53-33.43,10-2.08-9.11-3.77-18.89-4.99-29.16,7.34,4.22,15.05,8.31,23.11,12.21,5.1,2.46,10.22,4.77,15.32,6.95ZM74.03,168.63c-13.15-8.41-24.83-17.27-34.62-26.12,9.79-8.84,21.46-17.71,34.62-26.12-.61,8.45-.95,17.17-.95,26.12s.34,17.67.95,26.12ZM82.66,102.65c1.23-10.27,2.92-20.04,4.99-29.16,10.77,2.48,22,5.83,33.42,10-5.07,2.17-10.18,4.47-15.31,6.95-8.06,3.89-15.76,7.98-23.11,12.21ZM140.81,83.53c11.51-4.17,22.73-7.49,33.37-9.94,2.07,9.09,3.75,18.83,4.97,29.07-7.41-4.27-15.13-8.36-23.11-12.22-5.07-2.45-10.16-4.74-15.24-6.91ZM187.78,116.33c13.05,8.3,24.79,17.15,34.75,26.19-9.97,9.04-21.7,17.89-34.75,26.19.61-8.47.95-17.22.95-26.19s-.34-17.72-.95-26.19ZM130.91,7.24c16.96,0,32.29,23.73,41.52,59.18-13.13,3.03-27.11,7.39-41.53,13.04-14.19-5.55-28.18-9.92-41.53-13,9.23-35.48,24.56-59.23,41.53-59.23ZM9.08,83.71c4.75-9.85,18.87-15.22,39.37-15.22,3.3,0,6.77.14,10.38.42,6.88.54,14.11,1.56,21.61,3.03-2.48,10.93-4.4,22.78-5.65,35.36-15.74,9.63-29.51,19.87-40.8,30.15C12.93,116.9,2.68,96.97,9.08,83.71ZM58.84,216.12c-26.1,2.02-44.24-3.36-49.76-14.8-6.4-13.27,3.84-33.2,24.92-53.75,11.29,10.29,25.06,20.53,40.8,30.15,1.25,12.57,3.17,24.43,5.65,35.36-7.5,1.47-14.73,2.5-21.61,3.03ZM130.91,277.79c-16.97,0-32.31-23.75-41.53-59.22,13.34-3.08,27.34-7.45,41.53-13,14.19,5.55,28.19,9.92,41.53,13-9.23,35.48-24.56,59.22-41.53,59.22ZM252.73,201.33c-5.52,11.43-23.66,16.82-49.76,14.8-6.88-.54-14.11-1.56-21.61-3.03,2.48-10.94,4.4-22.8,5.65-35.39,15.44-9.46,29.26-19.7,40.79-30.21,1.92,1.88,3.8,3.77,5.56,5.67,17.83,19.17,24.89,36.73,19.36,48.16Z"/>
    </g>
  </g>
</svg>