<?xml version="1.0" encoding="UTF-8"?>
<svg id="Layer_2" data-name="Layer 2" xmlns="http://www.w3.org/2000/svg" viewBox="0 0 246.36 245.33">
  <defs>
    <style>
      .cls-1 {
        fill: #f5f5f7;
      }
    </style>
  </defs>
  <g id="Shapes">
    <path class="cls-1" d="M144.57,15.91L101.4,0l-15.6,42.34-42.61-15.7-15.81,42.9,42.61,15.7-11.57,31.4-42.61-15.7L0,143.82l42.61,15.7-15.6,42.34,43.17,15.91,15.6-42.34,31.6,11.65-15.6,42.34,43.17,15.91,15.6-42.34,42.61,15.7,15.81-42.9-42.61-15.7,11.57-31.4,42.61,15.7,15.81-42.9-42.61-15.7,15.6-42.34-43.17-15.91-15.6,42.34-31.6-11.65,15.6-42.34ZM144.77,112.79l-11.57,31.4-31.6-11.65,11.57-31.4,31.6,11.65Z"/>
  </g>
</svg>