<?xml version="1.0" encoding="UTF-8"?>
<svg id="Layer_2" data-name="Layer 2" xmlns="http://www.w3.org/2000/svg" viewBox="0 0 221.92 221.92">
  <defs>
    <style>
      .cls-1 {
        fill: #f5f5f7;
      }
    </style>
  </defs>
  <g id="Shapes">
    <g id="_39" data-name="39">
      <path class="cls-1" d="M110.96,0C49.68,0,0,49.68,0,110.96s49.68,110.96,110.96,110.96,110.96-49.68,110.96-110.96S172.24,0,110.96,0ZM110.96,162.74c-60.06,0-108.74-51.78-108.74-51.78,0,0,48.68-51.78,108.74-51.78s108.74,51.78,108.74,51.78c0,0-48.68,51.78-108.74,51.78Z"/>
      <path class="cls-1" d="M110.96,93.29c-9.76,0-17.67,7.91-17.67,17.67s7.91,17.67,17.67,17.67,17.67-7.91,17.67-17.67-7.91-17.67-17.67-17.67Z"/>
    </g>
  </g>
</svg>