<?xml version="1.0" encoding="UTF-8"?>
<svg id="Layer_2" data-name="Layer 2" xmlns="http://www.w3.org/2000/svg" viewBox="0 0 384.24 142.44">
  <defs>
    <style>
      .cls-1 {
        fill: #fff;
      }
    </style>
  </defs>
  <g id="Layer_1-2" data-name="Layer 1">
    <g>
      <path class="cls-1" d="M378,94.28c2.19-.67,1.99-3.58-.17-4.13-1.61-.41-3.49-.13-5.1.18v7.9h2.16s-.01-3.11-.01-3.11c.69-.02,1.56-.08,2.04.49,1.1,1.29-.31,3.29,3,2.62-.67-1.38-.36-3.16-1.92-3.95ZM374.88,93.68c.13-1.15-.57-2.45,1.02-2.34,2.83.21,1.5,3.07-1.02,2.34Z"/>
      <path class="cls-1" d="M369.6,89c-3.91,4.62-1.47,11.55,4.32,12.96,4.73,1.14,8.92-1.6,10.32-6.12v-3.12c-1.49-6.77-10.09-9.08-14.64-3.72ZM377.14,100.37c-8.99,1.25-9.7-12.05-1.58-12.62,7.9-.56,8.78,11.62,1.58,12.62Z"/>
      <polygon class="cls-1" points="153.74 0 153.74 .24 153.58 .72 131.44 .77 131.44 13.37 130.96 13.66 130.72 0 153.74 0"/>
      <path class="cls-1" d="M153.98,63.49V1.3s-.24-1.06-.24-1.06h-22.78v13.42h5.03v15.09l-6.16-4.03c-12.22-6.91-21.83-2.4-22.63,11.81-.44,7.93-.43,18.68,0,26.62.23,4.26,1.33,9.66,4.7,12.56,6.6,5.68,17.74.9,24.09-3.11v4.55h23.03v-13.66h-5.04ZM125.2,62.9c.56-7.94-.74-16.88-.01-24.69.52-5.52,8.31-.75,10.76.89l.06,24.71c-2.69,1.13-10.24,3.81-10.81-.91Z"/>
      <path class="cls-1" d="M58.28,66.61v21.08h-15.59v-7.43h-17.51v17.25h17.75v13.54s-.33.36-.36.36h-17.39v15.81h6.24v13.66H0v-13.66h6.24v-46.96H0v-13.66h58.28Z"/>
      <path class="cls-1" d="M308.45,127.23c-.21-6.42.27-12.89.01-19.3-.85-21.07-14.1-24.3-32.72-21.88-3.68.48-7.31,1.39-10.95,2.12v15.93s.34.36.36.36h14.4s.36-.33.36-.36v-4.55c0-.35,2.93-.62,3.48-.62,2.65.03,5.5,1.19,6.54,3.79.1.25.53,1.72.53,1.86v6.83c-7.97-3.64-22.11-6.78-27.54,2.33-2.69,4.51-2.59,15.92-.71,20.74,2.45,6.24,9.92,8.28,16.07,7.3,4.38-.71,8.62-3.15,12.18-5.69v4.79h23.02v-13.65h-5.03ZM290.41,128.85c-3.4,2.66-9.63,5.51-11.4-.37-.64-2.14-.57-5.34.06-7.48,1.2-4.17,5.05-3.76,8.46-2.71.95.3,2.82.83,2.94,1.85.32,2.65-.22,5.99-.06,8.71Z"/>
      <path class="cls-1" d="M257.12,63.49c-.35-7.34.46-15.11.01-22.41-1.16-18.8-17.07-20.76-32.48-18.76-3.68.47-7.32,1.37-10.94,2.12v16.29h14.87v-5.03c3.3-.8,8.13-.77,9.88,2.71.36.73.91,2.66.91,3.4v5.87c-2.49-.82-4.83-1.91-7.38-2.57-8.92-2.31-20-1.4-21.81,9.47-1.23,7.33-1.33,18.47,6.48,22.13,7.82,3.67,16.25.43,22.71-4.35v4.79h23.03v-13.66h-5.28ZM239.38,64.34c-.13,1.03-1.62,1.81-2.49,2.31-3.57,2.06-7.84,2.72-9.16-2.19-.64-2.38-.51-7.74,1.41-9.51,1.65-1.52,4.35-1.12,6.34-.63.55.14,3.39,1.12,3.66,1.38.24.23.21.42.24.71.19,1.58.21,6.38,0,7.93Z"/>
      <path class="cls-1" d="M207.71,104.46h-14.63v-5.51c-2.97-.46-9.42-1.47-11.24,1.59-1.67,2.82,1.18,4.88,3.61,5.66,8.5,2.71,19.88.68,23.56,11.44,3.82,11.16-1.46,21.4-13.05,23.84-10.42,2.19-22.27.27-32.39-2.52v-16.05h14.63v5.87c.63.48,1.9.56,2.75.61,2.51.16,10.63.13,11.35-3.06s-3.15-4.26-5.42-4.79c-9.81-2.27-22.21-1.85-23.31-15.29-1.86-22.67,20.92-22.25,36.94-19.41,1.87.33,5.12.78,6.78,1.37.18.06.31.15.41.31v15.93Z"/>
      <path class="cls-1" d="M361.21,104.46h-14.63v-5.51c-2.89-.62-11.23-1.54-11.53,2.75-.19,2.75,1.66,3.71,3.97,4.45,10.31,3.27,23.46.89,24.6,16.16,1.92,25.68-30.58,21.14-46.54,16.66v-16.05h14.63v5.87c.47.41,1.6.54,2.28.6,2.45.2,11.31.19,11.85-3,.41-2.43-1.49-3.67-3.53-4.35-3.43-1.15-7.71-1.27-11.33-2.1-10.43-2.42-15.34-8.62-13.6-19.58,2.84-17.94,24.74-15.81,38.08-13.25,1.89.36,4.03.7,5.75,1.44v15.93Z"/>
      <path class="cls-1" d="M154.72,126.13c-2.78.38-5.55,1.28-8.37,1.74-6.46,1.06-18.08,2.43-17.31-7.35,7.47-.05,21.6-.41,26.48-6.97,2.12-2.85,1.88-11.54,1.55-15.16-1.21-13.27-19.79-13.86-29.8-12.58-12.8,1.63-15.67,7.51-16.23,19.72-.41,8.92-1.28,22.65,4.92,29.61,9.48,10.63,30.07,7.47,42.09,3.33l-3.33-12.34ZM129.04,101.71c.56-2.8,6.55-3.21,8.77-3.01.92.09,1.75.3,2.12,1.23.46,1.19.64,6.73.28,7.9-.88,2.84-8.57,4.16-11.17,4.3v-10.42Z"/>
      <path class="cls-1" d="M204.58,62.3c-2.73.51-5.39,1.34-8.14,1.8-6.61,1.11-18.22,2.6-17.75-7.32,5.53.03,11.2-.19,16.6-1.5,4.36-1.07,10.77-3.58,11.44-8.7.35-2.67.29-12.24-.39-14.67-2.95-10.56-20.46-10.91-29.18-9.84-11.61,1.43-15.61,6.55-16.23,18.05-.35,6.48-.72,20.1,1.51,25.83,6.49,16.69,31.73,13.76,45.24,8.78l-3.1-12.43ZM178.69,38.69c0-.73.83-1.94,1.45-2.38,1.57-1.11,6.62-1.76,8.39-1.22.65.2,1.31,1.03,1.42,1.7.16,1.01.15,6.73-.1,7.55-.75,2.46-8.78,4.09-11.16,4.06v-9.71Z"/>
      <path class="cls-1" d="M299.09,77.63c-8.81,1.74-18.17,1.09-26.91-.79-.82-.18-6.43-1.41-6.43-1.96v-15.69h14.87v5.87c0,.77,6.92.67,7.79.6,2.71-.22,8.8-2.05,5.53-5.76-2.08-2.36-10.93-2.92-14.29-3.7-7.38-1.72-13.07-5.47-13.68-13.65-1.71-23.16,21.68-22.31,37.95-19.22,2.04.39,4.31.78,6.19,1.48v15.93h-14.51s-.36-.33-.36-.36v-5.15c-3.08-.75-12.51-1.55-11.41,3.85.45,2.23,2.44,2.95,4.4,3.51,7.2,2.07,17.46,1.12,21.83,8.62.27.47,1.01,1.77,1.01,2.23.45.27.49.55.14.91-2.67,2.74-5.38,5.47-8.11,8.15-.69.68-1.52,1.21-2.34,1.72-1.18,1.21-2.42,2.39-3.6,3.59-.83,1.68-2.06,3.18-3.68,4.48,1.78,1.71,3.71,3.26,5.64,4.78l-.04.56Z"/>
      <polygon class="cls-1" points="102.9 2.88 102.9 16.53 96.66 16.53 96.66 63.49 102.9 63.49 102.9 77.15 71.48 77.15 71.48 63.49 77.71 63.49 77.71 16.53 71.48 16.53 71.48 2.88 102.9 2.88"/>
      <path class="cls-1" d="M241.77,105.9v-6.71c-3.66-.5-7.95.36-9.23,4.32-1.06,3.26-.82,12.68-.62,16.42.29,5.31,1.7,7.81,7.33,8.25s11.06-1.19,16.42-1.67l1.89,12.43c-14.15,4.48-37.93,6.09-42.55-12.19-1.53-6.07-1.44-22.27.6-28.16,4.63-13.38,20.9-14.63,32.87-12.22,1.11.22,8.15,2.01,8.15,2.88v16.29s-.33.36-.36.36h-14.51Z"/>
      <path class="cls-1" d="M107.45,106.38h-15.11v-5.39c0-.22-.58-1.35-.86-1.53-1.4-.91-3.63.78-4.77,1.66-.44.34-2.76,2.45-2.76,2.75v23.36h4.92s.36.33.36.36v13.3h-28.54v-13.3s.33-.36.36-.36h4.92v-27.07h-5.28v-13.66h23.27v7.43c2.55-2.33,4.8-4.95,7.91-6.59,5.26-2.77,12.14-3.03,14.58,3.41.26.69,1.01,3.42,1.01,4.02v11.62Z"/>
      <path class="cls-1" d="M299.09,77.63c-.75-.51-6.23-4.98-6.23-5.39,1.5-1.41,2.88-2.96,4.31-4.43.65,1.37,2.19,2.51,3.38,3.45,13.22,10.37,31.92,10.73,45.62,1.06,19.35-13.66,21.84-41.62,4.97-58.3l4.19-4.19c16.2,16.02,17.13,42.28,2.4,59.66-14.36,16.94-40.12,20.78-58.65,8.14Z"/>
      <path class="cls-1" d="M378,94.28c2.19-.67,1.99-3.58-.17-4.13-1.61-.41-3.49-.13-5.1.18v7.9h2.16s-.01-3.11-.01-3.11c.69-.02,1.56-.08,2.04.49,1.1,1.29-.31,3.29,3,2.62-.67-1.38-.36-3.16-1.92-3.95ZM374.88,93.68c.13-1.15-.57-2.45,1.02-2.34,2.83.21,1.5,3.07-1.02,2.34Z"/>
      <path class="cls-1" d="M347.39,17.99l-36.3,35.44c0,.23-.07.43-.23.6-3.43,3.33-6.75,6.76-10.09,10.18,11.81,11.94,30.9,12.89,44.01,2.39,15-12.01,16.44-35.15,2.61-48.61ZM316.76,64.67c-.48-.52-3.33-3-3.25-3.42l3.46-3.5,3.47,3.47c-.61.46-3.23,3.54-3.68,3.46ZM332.76,66.83c-.42.07-2.91-2.77-3.43-3.25l3.25-3.42c.42-.07,2.91,2.77,3.43,3.25l-3.25,3.42ZM344.31,30.43l3.47,3.47-3.47,3.47-3.47-3.47,3.47-3.47ZM346.67,52.93c-.42.07-2.91-2.77-3.43-3.25l3.25-3.42c.42-.07,2.91,2.77,3.43,3.25l-3.25,3.42Z"/>
      <path class="cls-1" d="M378,94.28c2.19-.67,1.99-3.58-.17-4.13-1.61-.41-3.49-.13-5.1.18v7.9h2.16s-.01-3.11-.01-3.11c.69-.02,1.56-.08,2.04.49,1.1,1.29-.31,3.29,3,2.62-.67-1.38-.36-3.16-1.92-3.95ZM374.88,93.68c.13-1.15-.57-2.45,1.02-2.34,2.83.21,1.5,3.07-1.02,2.34Z"/>
    </g>
  </g>
</svg>