<?xml version="1.0" encoding="UTF-8"?>
<svg id="Layer_2" data-name="Layer 2" xmlns="http://www.w3.org/2000/svg" viewBox="0 0 347.7 108.17">
  <defs>
    <style>
      .cls-1 {
        fill: #fff;
      }
    </style>
  </defs>
  <g id="Layer_1-2" data-name="Layer 1">
    <g>
      <g>
        <path class="cls-1" d="M125.41,81.14v27.03h-1.7v-12.67h-3.36v12.67h-1.7v-27.03h1.7v12.67h3.36v-12.67h1.7Z"/>
        <path class="cls-1" d="M132.86,81.14c.75,0,1.38.26,1.89.77.51.52.77,1.15.77,1.89v21.71c0,.75-.26,1.38-.77,1.89-.52.52-1.15.77-1.89.77h-1.43c-.75,0-1.38-.26-1.89-.77-.52-.51-.77-1.14-.77-1.89v-21.71c0-.75.26-1.38.77-1.89.51-.51,1.14-.77,1.89-.77h1.43ZM133.83,83.8c0-.28-.09-.51-.27-.7-.18-.18-.41-.27-.7-.27h-1.43c-.28,0-.52.09-.7.27-.18.18-.27.41-.27.7v21.71c0,.28.09.51.27.69.18.18.41.27.7.27h1.43c.28,0,.52-.09.7-.27.18-.18.27-.41.27-.69v-21.71Z"/>
        <path class="cls-1" d="M145.72,81.14v1.7h-2.55v25.33h-1.66v-25.33h-2.55v-1.7h6.76Z"/>
        <path class="cls-1" d="M151.13,93.81h3.36v1.7h-3.36v10.97h4.21v1.7h-5.91v-27.03h5.91v1.7h-4.21v10.97Z"/>
        <path class="cls-1" d="M164.64,106.47v1.7h-5.91v-27.03h1.7v25.33h4.21Z"/>
        <path class="cls-1" d="M181.98,87.05v-3.48c0-.21-.07-.38-.21-.52-.14-.14-.32-.21-.52-.21h-1.89c-.21,0-.38.07-.52.21-.14.14-.21.32-.21.52v22.17c0,.49.25.73.74.73h1.89c.21,0,.38-.07.52-.21.14-.14.21-.32.21-.52v-10.24h-2.51v-1.7h4.21v14.37h-1.7v-.12c-.23.08-.48.12-.73.12h-1.89c-.67,0-1.24-.24-1.72-.71-.48-.48-.71-1.05-.71-1.72v-22.17c0-.67.24-1.24.71-1.72.47-.48,1.05-.71,1.72-.71h1.89c.67,0,1.24.24,1.72.71.48.48.72,1.05.72,1.72v3.48h-1.7Z"/>
        <path class="cls-1" d="M193.88,93.07c0,.59-.18,1.18-.54,1.76-.36.58-.8,1.01-1.31,1.29.52.26.95.66,1.31,1.2.36.54.54,1.12.54,1.74v9.11h-1.7v-9.11c0-.31-.1-.61-.31-.91-.21-.3-.45-.48-.74-.56l-1.39-.35-.93.46v10.47h-1.7v-27.03h4.33c.67,0,1.24.24,1.72.71.48.48.71,1.05.71,1.72v9.5ZM192.18,83.57c0-.21-.07-.38-.21-.52-.14-.14-.32-.21-.52-.21h-2.63v12.98l2.4-1.2c.26-.13.48-.35.68-.66.19-.31.29-.61.29-.89v-9.5Z"/>
        <path class="cls-1" d="M201.68,81.14c.75,0,1.38.26,1.89.77.51.52.77,1.15.77,1.89v21.71c0,.75-.26,1.38-.77,1.89-.52.52-1.15.77-1.89.77h-1.43c-.75,0-1.38-.26-1.89-.77-.52-.51-.77-1.14-.77-1.89v-21.71c0-.75.26-1.38.77-1.89.51-.51,1.15-.77,1.89-.77h1.43ZM202.64,83.8c0-.28-.09-.51-.27-.7-.18-.18-.41-.27-.7-.27h-1.43c-.28,0-.51.09-.69.27-.18.18-.27.41-.27.7v21.71c0,.28.09.51.27.69.18.18.41.27.69.27h1.43c.28,0,.52-.09.7-.27.18-.18.27-.41.27-.69v-21.71Z"/>
        <path class="cls-1" d="M214.54,81.14v24.37c0,.75-.26,1.38-.77,1.89-.52.52-1.15.77-1.89.77h-1.43c-.75,0-1.38-.26-1.89-.77-.52-.51-.77-1.14-.77-1.89v-24.37h1.7v24.37c0,.28.09.51.27.69.18.18.41.27.69.27h1.43c.28,0,.52-.09.7-.27.18-.18.27-.41.27-.69v-24.37h1.7Z"/>
        <path class="cls-1" d="M222.3,81.14c.67,0,1.24.24,1.72.71.48.48.72,1.05.72,1.72v9.5c0,.59-.18,1.18-.54,1.76-.36.58-.81,1.01-1.35,1.29l-3.17,1.58v10.47h-1.7v-27.03h4.32ZM223.04,83.57c0-.21-.07-.38-.21-.52-.14-.14-.32-.21-.52-.21h-2.63v12.98l2.4-1.2c.26-.13.48-.35.68-.66.19-.31.29-.61.29-.89v-9.5Z"/>
      </g>
      <path class="cls-1" d="M.29.02h50.41l.29.32.02,16.52c-.62-.15-1.16-.35-1.7-.55-.06-.38-.08-.4-.18-.79-.71-3.45-1.85-6.22-3.43-8.32-2.05-2.5-5.9-3.75-11.57-3.75h-3.43v57.95h6.29l.28.32v2.14l-.28.32H14.71l-.29-.32v-2.14l.29-.32h6.28V3.44h-4.14c-5.62,0-9.35,1.41-11.63,3.85-1.92,2.06-3.3,7.14-3.51,9.04l-1.71.53V.34L.29.02Z"/>
      <path class="cls-1" d="M53.84,10.73h22.14l.29.25v1.71l-.29.25h-6.28v33.21h27.71V12.94h-6.28l-.29-.25v-1.71l.29-.25h22.14l.29.25v1.71l-.29.25h-6.28v48.43h6.28l.29.25v2.31l-.29.25h-22.14l-.29-.25v-2.31l.29-.25h6.28v-12.9h-27.71v12.9h6.28l.29.25v2.31l-.29.25h-22.14l-.28-.25v-2.31l.28-.25h6.28V12.94h-6.28l-.28-.25v-1.71l.28-.25Z"/>
      <path class="cls-1" d="M168.1,10.73l.28.25v15l-1.76-.52c-.46-1.25-.75-6.63-5.23-9.3-2.2-1.31-5.31-2.14-9.57-2.14h-19.28l-1.43.14v21.53h6.43c6.45,0,10.64-2.17,12.57-6.5.67-1.62,1.29-3.64,1.86-6.07l1.57-.5.14.11v28.14l-1.86-.68c-1.33-8-5.57-12-12.71-12h-8v21.94h22.52c6.93,0,9.45-1.98,11.19-6.21.67-1.59,1.33-3.04,2-5.58l1.57-.39v16l-.28.25h-52.84l-.29-.25v-2.34l.29-.29h6.28V12.92h-5.14c-.57-.84-.95-1.28-1.41-1.99.19-.19.14-.1.28-.21h52.83Z"/>
      <path class="cls-1" d="M189.2,0h22.14l.29.32v2.14l-.29.32h-6.14v58.61h6.14l.29.32v2.14l-.29.32h-22.14l-.29-.32v-2.14l.29-.32h5.42V2.79h-5.42l-.29-.32V.32l.29-.32Z"/>
      <path class="cls-1" d="M213.44,10.58h20.14c1.07,1.07,7.02,9.24,17.85,24.49.38.26,5.38,7.14,14.99,20.64h.14V12.92h-7.14l-.29-.25v-1.72l.29-.25h20.14l.29.25v1.72l-.29.25h-9.43v47.43l2.44,3.83h-13c-.88-.93-12.94-17.43-35.29-48.42l-.14-.14h-.14v45.75h9.43l.29.37v2.11l-.29.32h-19.99l-.29-.32v-2.11l.29-.37h7V12.83h-7l-.29-.25v-1.75l.29-.25Z"/>
      <path class="cls-1" d="M281.3,10.73h20.27c1.07,1.07,6.87,9.09,17.7,24.35.38.26,5.38,7.14,15,20.64h.14V12.83h-7.14l-.29-.25v-1.75l.29-.25h20.14l.29.25v1.75l-.29.25h-9.43v47.52l2.37,3.82h-13c-.88-.93-12.87-17.42-35.22-48.41l-.14-.14h-.14v45.78h9.43l.29.37v2.16l-.29.25h-20l-.28-.25v-2.16l.28-.37h7l.15-48.5h-7.13l-.3-.2v-1.71s.3-.25.3-.25Z"/>
    </g>
  </g>
</svg>