<?xml version="1.0" encoding="UTF-8"?>
<svg id="Layer_2" data-name="Layer 2" xmlns="http://www.w3.org/2000/svg" xmlns:xlink="http://www.w3.org/1999/xlink" viewBox="0 0 4375.41 720">
  <defs>
    <style>
      .cls-1 {
        mask: url(#mask);
      }

      .cls-2 {
        fill: #fff;
        fill-rule: evenodd;
      }
    </style>
    <mask id="mask" x="0" y="59.14" width="349.08" height="613.62" maskUnits="userSpaceOnUse">
      <g id="mask-2">
        <g id="use17">
          <polygon id="path-1" class="cls-2" points=".02 672.76 349.08 672.76 349.08 59.14 .02 59.14 .02 59.14 .02 672.76"/>
        </g>
      </g>
    </mask>
  </defs>
  <g id="svg38">
    <g id="g36">
      <g id="_01-Home-inicial" data-name="01-Home-inicial">
        <g id="Page-1">
          <path id="Fill-1" class="cls-2" d="M553.87,373.85c0-160.62,130.2-290.77,290.74-290.77s290.8,130.15,290.8,290.77-130.2,290.77-290.8,290.77-290.74-130.15-290.74-290.77M568.83,373.85c0,152.38,123.48,275.87,275.78,275.87s275.84-123.49,275.84-275.87-123.48-275.87-275.84-275.87-275.78,123.55-275.78,275.87"/>
          <path id="Fill-3" class="cls-2" d="M941.56,568.04c-24.51,8.74-50.98,13.5-78.68,13.5-124.77,0-225.94-97.13-225.94-216.92,0-54.82,21.21-104.94,56.42-143.08,0,0-35.21,50.47-35.21,118.2,0,130.29,118.23,229.53,255.16,229.53,21.58,0,28.24-1.23,28.24-1.23"/>
          <path id="Fill-5" class="cls-2" d="M687.42,428.37s-22.79-39.87-22.79-93.21c0-112,82.77-196.71,189.55-196.71,124.74,0,225.83,99.07,225.83,221.25,0,109.25-78.01,194.13-177.58,194.13-65.97,0-119.18-31.07-119.18-31.07,21.69,9.1,45.75,14.19,70.92,14.19,99.94,0,180.88-79.38,180.88-177.25s-80.94-177.19-180.88-177.19-180.81,79.32-180.81,177.19c0,24.36,5.01,47.53,14.05,68.66"/>
          <path id="Fill-7" class="cls-2" d="M1107.72,197.96S1026.32,29.77,820.33,29.77c-174.77,0-321.02,149.41-321.02,324.34,0,143.21,87.23,227.43,87.23,227.43,0,0-115.75-94.79-115.75-228.76,0-179.43,141.2-352.78,355.13-352.78s281.79,197.96,281.79,197.96"/>
          <path id="Fill-9" class="cls-2" d="M498.49,494.6s99.45,195.47,334.32,195.47c181.89,0,327.98-150.28,327.98-329.76,0-193.09-100.36-277.24-100.36-277.24,0,0,130.36,95.02,130.36,280.66s-148.84,356.26-360.3,356.26c-178.05,0-294.75-125.55-332.01-225.4"/>
          <path id="Fill-11" class="cls-2" d="M581.56,345.85c0-129.8,103.14-235.08,238.41-235.08s260.05,105.28,260.05,235.08c0,87.83-47.45,164.69-120.82,205.19-16.75,5.37-34.73,8.3-53.15,8.3l-3.35-.06c96.75-25.68,162.06-111.75,162.06-213.43,0-121.87-113-220.68-244.11-220.68s-223.9,98.81-223.9,220.68,117.78,221.29,244.8,221.29l4.09-.06c17.68,4.09,35.97,6.47,54.64,7.01-19.6,4.82-40.25,7.44-61.71,7.44-135.33,0-257.01-105.89-257.01-235.69"/>
          <path id="Fill-13" class="cls-2" d="M526.18,360c0-161.75,125.34-304.62,295.14-304.62s314.09,134.72,314.09,304.62-126.07,304.62-294.29,304.62-314.94-132.57-314.94-304.62M541.04,360.12c0,163.59,136.37,289.72,299.53,289.72s279.86-135.64,279.86-289.72S985.4,70.4,821.75,70.4s-280.71,135.88-280.71,289.72"/>
          <g id="Group-17">
            <g class="cls-1">
              <path id="Fill-15" class="cls-2" d="M74.82,124.69v209.84h88.62c62.94,0,110.04-29.24,110.04-103.68s-46.62-106.16-110.04-106.16h-88.62ZM74.82,396.04v276.72H0V59.14h168.48c95.58,0,180.6,49.66,180.6,168.39s-78.12,168.51-180.6,168.51h-93.66Z"/>
            </g>
          </g>
          <path id="Fill-18" class="cls-2" d="M2708.04,120.47v479.06h135.97c126.18,0,232.29-81.1,232.29-243.61,0-151.41-109.27-235.45-232.29-235.45h-135.97ZM2630.79,664.62V55.38h220.15c161.18,0,306,95.2,306,300.54,0,187.76-125.13,308.69-306,308.69h-220.15Z"/>
          <path id="Fill-20" class="cls-2" d="M2068.72,415.19h204.43l-100.98-244.18-103.45,244.18ZM2296.78,472.15h-251.88l-80.62,192.41-81.18.06L2162.08,27.69h20.36l282.2,636.92-87.98-.06-79.88-192.41Z"/>
          <path id="Fill-22" class="cls-2" d="M3453.33,415.19h204.43l-100.98-244.18-103.45,244.18ZM3681.4,472.15h-251.88l-80.62,192.41-81.18.06L3546.7,27.69h20.36l282.2,636.92-87.98-.06-79.88-192.41Z"/>
          <path id="Fill-24" class="cls-2" d="M1640.26,176.5c-9.31-46.17-52.77-85.61-120.08-85.61-55.38,0-103.4,29.45-103.4,94.7,0,56.53,28.36,82.58,128.91,114.7,135.48,43.26,171.27,101.73,171.27,182.68,0,89.55-69.32,181.65-196.77,181.65s-190.92-80.28-190.92-151.29l67.56-34.11c0,69.19,48.99,122.27,125.86,122.27s119.23-54.77,119.23-115.18-24.04-87.01-123-117.85c-115.58-35.93-177.96-87.31-177.96-175.35,0-102.28,77.42-165.41,189.22-165.41,144.67,0,175.95,118.09,175.95,118.09l-65.85,30.72Z"/>
          <path id="Fill-26" class="cls-2" d="M4298.72,176.5c-9.31-46.17-52.77-85.61-120.08-85.61-55.32,0-103.4,29.45-103.4,94.7,0,56.53,28.42,82.58,128.91,114.7,135.54,43.26,171.27,101.73,171.27,182.68,0,89.55-69.32,181.65-196.77,181.65s-190.92-80.28-190.92-151.29l67.56-34.11c0,69.19,48.99,122.27,125.86,122.27s119.23-54.77,119.23-115.18-24.04-87.01-123-117.85c-115.58-35.93-177.96-87.31-177.96-175.35,0-102.28,77.42-165.41,189.22-165.41,144.67,0,175.95,118.09,175.95,118.09l-65.85,30.72Z"/>
        </g>
      </g>
    </g>
  </g>
</svg>