<?xml version="1.0" encoding="UTF-8"?>
<svg id="Layer_2" data-name="Layer 2" xmlns="http://www.w3.org/2000/svg" viewBox="0 0 1064.62 184.38">
  <defs>
    <style>
      .cls-1 {
        fill: #fff;
      }
    </style>
  </defs>
  <g id="Layer_1-2" data-name="Layer 1">
    <g>
      <g>
        <path class="cls-1" d="M330.98,118.02c-9.3,9.12-20.93,13.41-32.91,13.41-25.22,0-45.96-16.81-45.96-45.79s20.21-45.61,45.96-45.61c11.81,0,22.18,4.11,31.48,13.06h0c-4.13,4.04-10.39,4.88-15.48,2.14-4.92-2.65-10.26-3.93-15.83-3.93-18.78,0-34.16,12.7-34.16,34.34s15.56,34.34,33.98,34.34c5.87,0,11.75-1.47,17.02-4.35,5.19-2.84,11.66-1.76,15.89,2.38h0Z"/>
        <path class="cls-1" d="M354.59,90.65c1.61,18.42,15.92,29.33,33.44,29.33,7.63,0,16.35-2.17,23-6.26,4.73-2.9,10.77-2.44,14.91,1.25h0c-8.76,10.91-23.96,16.46-37.92,16.46-26.29,0-45.79-17.71-45.79-45.96,0-26.47,18.96-45.61,45.25-45.61s47.4,15.92,44,50.79h-76.9ZM420.23,80.46c-.36-19.32-14.85-29.87-32.55-29.87s-30.76,10.73-33.09,29.87h65.64Z"/>
        <path class="cls-1" d="M537.91,85.82c0,27.36-19.32,45.43-45.43,45.43s-45.43-18.07-45.43-45.43,18.96-45.96,45.43-45.96,45.43,18.6,45.43,45.96ZM459.04,85.82c0,20.57,13.95,34.16,33.44,34.16s33.45-13.59,33.45-34.16-13.77-35.05-33.45-35.05-33.44,14.66-33.44,35.05Z"/>
        <path class="cls-1" d="M607.85,41.47l.72,14.49c5.72-11.8,17.53-15.92,28.08-15.92,8.05,0,13.59,1.79,20.03,6.26h0c-2.75,4.97-8.5,7.56-14.01,6.18-2.13-.54-4.38-.81-6.74-.81-15.2.18-27.36,11.8-27.36,27.9v38.27c0,6.62-5.37,11.98-11.98,11.98h0V52.74c0-6.22,5.04-11.27,11.27-11.27h0Z"/>
        <path class="cls-1" d="M671.34,53.1v76.72h0c6.62,0,11.98-5.37,11.98-11.98V41.11h0c-6.62,0-11.98,5.37-11.98,11.98Z"/>
        <path class="cls-1" d="M775.29,52.22c-3.43,3.87-9.02,4.66-13.6,2.25-6-3.15-12.22-3.89-18.99-3.89-12.88-.18-24.32,4.47-23.97,14.31.18,10.37,13.06,12.88,24.15,14.49,15.92,2.32,36.49,5.01,36.49,26.47-.36,18.6-18.42,25.76-36.31,25.76-15.2,0-30.23-5.01-39.17-17.17h0c3.66-4,9.79-4.83,14.17-1.64,7.35,5.36,16.76,7.59,25.18,7.72,10.01,0,24.15-2.86,24.15-14.85s-11.45-13.77-25.58-15.74c-16.99-2.5-34.7-6.44-34.88-24.68,0-18.06,18.24-25.75,35.59-25.57,13.24,0,24.14,3.58,33.26,11.98l-.5.56Z"/>
        <path class="cls-1" d="M800.47,53.1v76.72h0c6.62,0,11.98-5.37,11.98-11.98V41.11h0c-6.62,0-11.98,5.37-11.98,11.98Z"/>
        <path class="cls-1" d="M910.11,129.82v-49.54c0-18.96-11.09-28.97-28.79-28.97-17.17.18-28.97,13.41-28.97,30.4v36.13c0,6.62-5.37,11.98-11.98,11.98h0V52.92c0-6.32,5.12-11.45,11.45-11.45h0l.36,14.84c7.33-11.27,18.78-16.27,30.76-16.27,22.89,0,39.35,13.59,39.35,40.06v37.56c0,6.72-5.44,12.16-12.16,12.16h0Z"/>
        <path class="cls-1" d="M1033.52,42.18h0s-9.48,11.27-9.48,11.27c6.62,7.33,11.8,15.2,11.8,29.33,0,15.56-8.59,31.84-26.65,37.02,16.63,4.47,26.11,14.31,26.11,28.97,0,22.18-22,33.62-45.43,33.62-25.22,0-44.89-13.41-44.71-36.49h.13c6.05,0,11.23,3.79,13.72,9.3,4.69,10.4,17.55,15.56,30.86,15.56,16.27,0,33.26-6.26,33.26-22s-16.81-22.54-33.26-22.54c-27.19,0-46.32-15.92-46.32-43.46s24.15-43.46,46.32-43.46c8.4,0,19.49,2.5,26.11,7.15l2.44-2.91c3.8-4.53,10.53-5.14,15.09-1.38ZM955.72,82.78c0,21.82,15.02,32.37,34.16,32.37,20.39,0,33.98-14.84,33.98-32.37,0-22-16.63-32.19-33.98-32.19-16.28,0-34.16,10.02-34.16,32.19Z"/>
        <path class="cls-1" d="M1064.62,54.77c0,7.35-4.79,13.55-13.4,13.55s-13.4-6.2-13.4-13.55,4.82-13.55,13.4-13.55,13.4,6.2,13.4,13.55ZM1051.23,66.2c7.01,0,11.02-5.05,11.02-11.43s-4.01-11.43-11.02-11.43-10.99,5.05-11.02,11.43c.04,6.38,4.01,11.43,11.02,11.43ZM1053.53,56.41c5.45-.78,5.05-8.8-1-8.8h-6.35v14.06h2.12v-5.08h2.78l4.3,5.08h2.34v-.45l-4.19-4.82ZM1052.53,49.61c3.52,0,3.49,5.05-.07,5.05h-4.16v-5.05h4.23Z"/>
      </g>
      <g>
        <path class="cls-1" d="M89.14,82.12v-26.48c-.32.74-.65,1.43-1.02,2.17-4.11,8.64-8.41,17.51-10.26,31.42h9.89l1.39-7.12Z"/>
        <path class="cls-1" d="M29.94,24.26c-1.25,17.65-6.15,27.87-10.91,37.75-3.79,7.9-7.39,15.62-9.15,27.22H0c1.85-13.91,6.15-22.78,10.26-31.42,3.05-6.28,5.92-12.43,7.86-20.38,3.51-4.76,7.49-9.15,11.83-13.17Z"/>
        <path class="cls-1" d="M49.77,15.11c0,23.52-5.73,35.4-11.23,46.9-3.84,7.9-7.44,15.62-9.2,27.22h-9.84c1.85-13.91,6.1-22.78,10.26-31.42,5.18-10.81,10.07-21.12,10.21-41.64,3.1-2.13,6.33-3.97,9.7-5.73.05,1.53.09,3.05.09,4.67Z"/>
        <path class="cls-1" d="M69.22,15.11c0,23.52-5.73,35.4-11.23,46.9-3.79,7.9-7.44,15.62-9.2,27.22h-9.84c1.85-13.91,6.1-22.78,10.26-31.42,5.27-11,10.26-21.4,10.26-42.7,0-3.23-.14-6.15-.37-8.92,3.14-1.2,6.29-2.22,9.57-3.1.37,3.65.55,7.62.55,12.01Z"/>
        <path class="cls-1" d="M88.68,15.11c0,23.52-5.68,35.4-11.23,46.9-3.79,7.9-7.44,15.62-9.15,27.22h-9.89c1.85-13.91,6.1-22.78,10.26-31.42,5.31-11,10.26-21.4,10.26-42.7,0-5.27-.28-9.84-.83-13.96,3.19-.51,6.42-.83,9.7-1.02.56,4.44.88,9.38.88,14.97Z"/>
      </g>
      <g>
        <path class="cls-1" d="M.01,95.3h89.15v-.1H0s0,.07,0,.1Z"/>
        <path class="cls-1" d="M89.14,174.54v9.84c-13.77-.46-26.71-4.02-38.31-9.84h38.31Z"/>
        <path class="cls-1" d="M89.14,95.29v10.07H.93c-.46-3.28-.79-6.65-.93-10.07h89.14Z"/>
        <path class="cls-1" d="M89.14,154.71v10.07h-53.7c-3.93-3.05-7.58-6.42-10.91-10.07h64.6Z"/>
        <path class="cls-1" d="M89.14,115.11v10.07H6.15c-1.25-3.28-2.36-6.61-3.23-10.07h86.23Z"/>
        <path class="cls-1" d="M89.14,134.94v10.07H16.59c-2.26-3.24-4.25-6.61-6.05-10.07h78.6Z"/>
      </g>
      <g>
        <path class="cls-1" d="M184.22,96.74c.02-.52.11-1.02.12-1.54h-.12v1.54Z"/>
        <path class="cls-1" d="M184.2,95.2v1.52c-.65,13.49-4.2,26.16-10.03,37.52v-39.05h10.03Z"/>
        <path class="cls-1" d="M105.22,95.2v88.26c-3.33.46-6.65.83-10.07.92v-89.19h10.07Z"/>
        <path class="cls-1" d="M124.95,95.2v83.13c-3.28,1.25-6.61,2.31-10.03,3.19v-86.32h10.03Z"/>
        <path class="cls-1" d="M144.73,95.2v72.78c-3.23,2.22-6.61,4.2-10.07,6.01v-78.79h10.07Z"/>
        <path class="cls-1" d="M164.47,95.2v54.16c-3.05,3.88-6.42,7.44-10.03,10.77v-64.93h10.03Z"/>
      </g>
      <g>
        <path class="cls-1" d="M104.85,89.23c-1.71-1.43-3.37-2.91-4.99-4.53-1.66-1.66-3.19-3.42-4.71-5.22"/>
        <path class="cls-1" d="M121.26,89.23h-16.41c-1.71-1.43-3.37-2.91-4.99-4.53s-3.19-3.42-4.71-5.22v-16.5c3.05,5.41,6.79,10.49,11.41,15.06,4.48,4.48,9.43,8.13,14.69,11.18Z"/>
        <path class="cls-1" d="M184.38,71.77v10.86c-8.23,4.21-17.24,6.38-26.25,6.61h-3.1c-15.2-.42-30.27-6.33-41.82-17.88-19.27-19.27-23.01-48.29-11.18-71.35h10.86c-12.85,20.1-10.54,47.13,6.98,64.7,17.51,17.47,44.46,19.82,64.51,7.07Z"/>
        <path class="cls-1" d="M184.38,46.9v13.12c-16.68,14.46-42.01,13.82-57.81-2.03-15.9-15.9-16.5-41.31-1.85-58h13.12l-4.62,4.62c-12.89,12.89-12.89,33.83,0,46.72,12.89,12.89,33.83,12.89,46.72,0l4.44-4.44Z"/>
        <path class="cls-1" d="M184.38,20.19v13.36l-11.09,11.14c-9.24,9.2-24.17,9.2-33.36,0-9.24-9.2-9.24-24.17,0-33.36l11.28-11.32h13.36l-17.98,17.98c-5.55,5.5-5.55,14.51,0,20.01,5.5,5.55,14.51,5.55,20.01,0l17.79-17.79Z"/>
        <path class="cls-1" d="M184.38,0v6.89l-24.45,24.45c-1.85,1.85-4.85,1.85-6.7,0-1.85-1.85-1.85-4.85,0-6.7L177.91,0h6.47Z"/>
      </g>
    </g>
  </g>
</svg>