<svg xmlns="http://www.w3.org/2000/svg" viewBox="0 0 239.18 53.42"><defs><style>.cls-1{fill:#fcfafc;}</style></defs><g id="Layer_2" data-name="Layer 2"><g id="Layer_1-2" data-name="Layer 1"><path class="cls-1" d="M61.92,13.78V0h2.26V5.61h6.5V0h2.26V13.78H70.68V7.68h-6.5v6.1Z"/><path class="cls-1" d="M75.94,13.78V0H78.2V13.78Z"/><path class="cls-1" d="M81.2,13.78V0h5.15a4.8,4.8,0,0,1,2.29.52,3.86,3.86,0,0,1,1.52,1.42,3.8,3.8,0,0,1,.55,2,3.68,3.68,0,0,1-1.09,2.75,4.33,4.33,0,0,1-2.85,1.19l4.84,5.86H88.76L84.05,7.93h-.59v5.85ZM86.26,2h-2.8V6.06h2.78a2.3,2.3,0,0,0,1.62-.54A1.94,1.94,0,0,0,88.44,4a2,2,0,0,0-.57-1.46A2.15,2.15,0,0,0,86.26,2Z"/><path class="cls-1" d="M93.28,13.78V0h9.18V2.07H95.55V5.75h6.34v2H95.55v4h7v2.06Z"/><path class="cls-1" d="M61.58,37.41v-14h6.7a4.76,4.76,0,0,1,2.23.49A3.73,3.73,0,0,1,72,25.19a3.55,3.55,0,0,1,.53,1.92A3.06,3.06,0,0,1,70.92,30a3.54,3.54,0,0,1,2,3.33,3.82,3.82,0,0,1-.62,2.15,4,4,0,0,1-1.7,1.46,5.84,5.84,0,0,1-2.55.52Zm5.6-11.18H65.44v2.6h1.74a1.69,1.69,0,0,0,1-.32,1.39,1.39,0,0,0,0-2A1.69,1.69,0,0,0,67.18,26.23Zm.17,5.31H65.44v3h1.91a1.73,1.73,0,0,0,1.2-.41,1.57,1.57,0,0,0,0-2.22A1.73,1.73,0,0,0,67.35,31.54Z"/><path class="cls-1" d="M74.56,37.41v-14h6.2a5.88,5.88,0,0,1,2.56.53,4.26,4.26,0,0,1,1.73,1.48,3.9,3.9,0,0,1,.63,2.21,3.83,3.83,0,0,1-.85,2.5,4.47,4.47,0,0,1-2.34,1.45l4.1,5.85H82.12l-3.56-5.59H78.5v5.59Zm5.57-11.18H78.5V29.1h1.63a1.75,1.75,0,0,0,1.23-.39,1.48,1.48,0,0,0,0-2.09A1.75,1.75,0,0,0,80.13,26.23Z"/><path class="cls-1" d="M87.57,37.41v-14h10.6v3.27H91.51v2h6v3.19h-6v2.28h6.78v3.27Z"/><path class="cls-1" d="M99.11,37.41l5.34-14h4l5.27,14h-4.09l-.77-2.36h-5l-.79,2.36ZM105,32h2.9l-1.42-4.35Z"/><path class="cls-1" d="M114.87,37.41v-14h3.93v6.24l4.34-6.24h4.74l-4.94,6.68,5.16,7.34h-4.73L118.8,30.6v6.81Z"/><path class="cls-1" d="M131.47,37.41V26.74h-4.2V23.39h12.35v3.35H135.4V37.41Z"/><path class="cls-1" d="M141.09,37.41v-14H145v5.24h4.53V23.39h3.94v14h-3.94V31.9H145v5.51Z"/><path class="cls-1" d="M155.82,37.41v-14H162a5.91,5.91,0,0,1,2.56.53,4.32,4.32,0,0,1,1.73,1.48,3.9,3.9,0,0,1,.63,2.21,3.83,3.83,0,0,1-.86,2.5,4.48,4.48,0,0,1-2.33,1.45l4.09,5.85h-4.47l-3.56-5.59h-.06v5.59Zm5.58-11.18h-1.64V29.1h1.64a1.78,1.78,0,0,0,1.23-.39,1.51,1.51,0,0,0,0-2.09A1.78,1.78,0,0,0,161.4,26.23Z"/><path class="cls-1" d="M175.81,37.69a8.3,8.3,0,0,1-3-.55,7.46,7.46,0,0,1-2.43-1.54,7.08,7.08,0,0,1-1.6-2.32,7.7,7.7,0,0,1,0-5.79,6.82,6.82,0,0,1,1.59-2.31,7.22,7.22,0,0,1,2.41-1.52,8.83,8.83,0,0,1,6.08,0,7.22,7.22,0,0,1,2.41,1.52,6.91,6.91,0,0,1,1.59,2.32,7.76,7.76,0,0,1,0,5.79,7,7,0,0,1-1.59,2.32,7.16,7.16,0,0,1-2.4,1.54A8.18,8.18,0,0,1,175.81,37.69Zm0-3.47a3.38,3.38,0,0,0,2.62-1,4,4,0,0,0,1-2.8,3.83,3.83,0,0,0-1-2.77,3.83,3.83,0,0,0-5.23,0,3.87,3.87,0,0,0-1,2.77,4,4,0,0,0,1,2.8A3.38,3.38,0,0,0,175.77,34.22Z"/><path class="cls-1" d="M190.87,37.65a6.56,6.56,0,0,1-3.23-.76,5.4,5.4,0,0,1-2.14-2.1,6,6,0,0,1-.77-3.07V23.39h3.94v8.69a1.92,1.92,0,0,0,.64,1.56,2.33,2.33,0,0,0,1.56.54,2.24,2.24,0,0,0,1.54-.54A2,2,0,0,0,193,32.1V23.39h4v8.35a6.09,6.09,0,0,1-.76,3.06,5.49,5.49,0,0,1-2.13,2.09A6.47,6.47,0,0,1,190.87,37.65Z"/><path class="cls-1" d="M206,37.65a8.32,8.32,0,0,1-3-.54,7.33,7.33,0,0,1-2.42-1.53,7,7,0,0,1-1.6-2.3,7.19,7.19,0,0,1-.57-2.88,6.74,6.74,0,0,1,.6-2.89,6.91,6.91,0,0,1,1.67-2.3,7.77,7.77,0,0,1,2.49-1.51,8.48,8.48,0,0,1,3-.54,8.67,8.67,0,0,1,3.5.67,6.71,6.71,0,0,1,2.51,1.81l-2.66,2.65A5.21,5.21,0,0,0,208,27a3.94,3.94,0,0,0-1.89-.42,4,4,0,0,0-1.89.46,3.61,3.61,0,0,0-1.35,1.31,3.89,3.89,0,0,0-.5,2,3.79,3.79,0,0,0,1,2.76,3.55,3.55,0,0,0,2.66,1,3.43,3.43,0,0,0,1.88-.47A2.74,2.74,0,0,0,209,32.39l-3.53-.1V29.14h7.78v.59a9.2,9.2,0,0,1-.92,4.3,6.32,6.32,0,0,1-2.55,2.69A7.68,7.68,0,0,1,206,37.65Z"/><path class="cls-1" d="M214.74,37.41v-14h3.94v5.24h4.52V23.39h3.94v14H223.2V31.9h-4.52v5.51Z"/><path class="cls-1" d="M232.91,23.39v.81h-1.56v4.09h-1V24.2h-1.57v-.81Zm5.3,4.9L238,25.41c0-.38,0-.85,0-1.37h-.05c-.13.43-.27,1-.42,1.46l-.88,2.72h-1l-.88-2.79c-.09-.38-.23-1-.34-1.39h-.06c0,.45,0,.92,0,1.37l-.18,2.88h-.94l.36-4.9H235l.85,2.4c.11.38.2.74.32,1.24h0c.13-.45.23-.86.34-1.22l.85-2.42h1.4l.38,4.9Z"/><path class="cls-1" d="M0,0V40.31L25.44,53.42,50.88,40.31V0ZM21.94,7V20.12H7V7ZM7,27.12H21.94V43.74L7,36ZM28.94,43.74V7H43.88V20.12H35.19v7h8.69V36Z"/></g></g></svg>